<svg width="342" height="342" viewBox="0 0 342 342" fill="none" xmlns="http://www.w3.org/2000/svg">
<mask id="mask0_1450_0" style="mask-type:alpha" maskUnits="userSpaceOnUse" x="0" y="0" width="342" height="342">
<path d="M0.333252 63.9154C0.333252 28.8 28.7999 0.333374 63.9152 0.333374H277.551C312.666 0.333374 341.133 28.8 341.133 63.9154V277.551C341.133 312.666 312.666 341.133 277.551 341.133H63.9152C28.7999 341.133 0.333252 312.666 0.333252 277.551V63.9154Z" fill="#71EF9C"/>
</mask>
<g mask="url(#mask0_1450_0)">
<path d="M0.333252 0.333374H343.373V343.373H0.333252V0.333374Z" fill="url(#paint0_linear_1450_0)"/>
</g>
<path d="M269.573 121.832C252.035 126.088 237.346 134.289 219.476 137.403V103.167C203.136 109.256 188.494 114.129 174.377 120.228C167.92 123.02 165.73 129.68 165.589 136.666C165.216 137.574 164.92 138.394 164.691 139.085C160.778 133.96 155.553 129.68 149.017 126.244C142.48 122.808 134.83 121.088 126.065 121.084C116.709 120.991 107.508 123.474 99.4693 128.263C91.445 133.052 85.1076 139.759 80.4571 148.386C75.8065 157.012 73.4812 166.922 73.4812 178.116C73.4812 189.313 75.8065 199.326 80.4571 208.153C85.1076 216.98 91.4104 223.857 99.3655 228.784C107.254 233.686 116.373 236.246 125.66 236.165C134.286 236.165 141.972 234.413 148.716 230.907C155.46 227.402 160.785 223.02 164.691 217.76L165.973 219.494C168.008 232.989 179.058 239.295 193.129 234.644C207.512 229.89 221.786 224.783 236.069 219.727C247.296 215.762 258.471 211.651 270.45 207.322C269.983 178.095 271.322 150.405 269.573 121.832ZM159.922 198.649C156.752 204.379 152.6 208.727 147.465 211.693C142.443 214.622 136.731 216.158 130.917 216.14C125.104 216.123 119.401 214.554 114.397 211.594C109.206 208.559 105.026 204.142 101.857 198.343C98.6873 192.544 97.1043 185.796 97.1077 178.101C97.1077 170.419 98.6908 163.779 101.857 158.18C105.023 152.581 109.175 148.334 114.314 145.438C119.373 142.566 125.1 141.076 130.918 141.119C136.744 141.091 142.471 142.628 147.501 145.567C152.626 148.536 156.778 152.851 159.958 158.512C163.138 164.173 164.721 170.848 164.707 178.537C164.697 186.211 163.108 192.916 159.942 198.649H159.922ZM214.872 140.289C205.789 143.491 196.97 147.062 187.882 149.657C181.041 151.609 174.387 147.441 171.652 140.756C169.399 135.244 170.873 127.842 176.292 124.93C188.1 118.583 200.936 114.846 214.877 110.833L214.872 140.289ZM264.217 204.307L220.825 219.712V143.844L264.217 128.408V204.307Z" fill="white"/>
<defs>
<linearGradient id="paint0_linear_1450_0" x1="171.853" y1="0.333374" x2="171.853" y2="343.373" gradientUnits="userSpaceOnUse">
<stop stop-color="#72DDA3"/>
<stop offset="1" stop-color="#57BEB8"/>
</linearGradient>
</defs>
</svg>
